<?xml version="1.0" encoding="UTF-8"?>
<!DOCTYPE svg PUBLIC "-//W3C//DTD SVG 1.1//EN" "http://www.w3.org/Graphics/SVG/1.1/DTD/svg11.dtd">
<!-- Creator: CorelDRAW -->
<svg xmlns="http://www.w3.org/2000/svg" xml:space="preserve" width="28.1586mm" height="28.1407mm" version="1.1" style="shape-rendering:geometricPrecision; text-rendering:geometricPrecision; image-rendering:optimizeQuality; fill-rule:evenodd; clip-rule:evenodd"
viewBox="0 0 4987.65 4984.48"
 xmlns:xlink="http://www.w3.org/1999/xlink"
 xmlns:xodm="http://www.corel.com/coreldraw/odm/2003">
 <defs>
  <style type="text/css">
   <![CDATA[
    .fil1 {fill:white}
    .fil0 {fill:url(#id0)}
   ]]>
  </style>
  <linearGradient id="id0" gradientUnits="userSpaceOnUse" x1="1610.32" y1="161.82" x2="3377.3" y2="4822.62">
   <stop offset="0" style="stop-opacity:1; stop-color:#468EF9"/>
   <stop offset="1" style="stop-opacity:1; stop-color:#0C66EE"/>
  </linearGradient>
 </defs>
 <g id="Camada_x0020_1">
  <metadata id="CorelCorpID_0Corel-Layer"/>
  <g id="_2449281878912">
   <rect class="fil0" x="1.57" y="-0.01" width="4984.47" height="4984.47" rx="241.58" ry="241.58"/>
   <g>
    <path class="fil1" d="M0.02 1213.53c184.83,306.48 358.29,641.39 532.87,956.08 325.26,586.26 547.96,1287.91 1221.26,1305.09 306.34,7.81 595.68,-140.32 877.77,-334.72 -262.86,-1.15 -473.66,68.6 -701.76,-343.13 -174.43,-314.86 -349.06,-629.65 -523.69,-944.42 -174.7,-314.9 -300.6,-562.27 -594.63,-681.64 -217.6,-88.32 -501.13,-119.24 -811.81,42.74z"/>
    <path class="fil1" d="M2481.14 1911.84c320.07,0 579.54,259.47 579.54,579.52 0,320.07 -259.47,579.52 -579.54,579.52 -320.05,0 -579.52,-259.46 -579.52,-579.52 0,-320.05 259.47,-579.52 579.52,-579.52zm0 71.59c280.53,0 507.95,227.41 507.95,507.93 0,280.53 -227.41,507.95 -507.95,507.95 -280.52,0 -507.93,-227.41 -507.93,-507.95 0,-280.52 227.41,-507.93 507.93,-507.93zm0 -35.11c299.91,0 543.05,243.12 543.05,543.04 0,299.91 -243.14,543.05 -543.05,543.05 -299.91,0 -543.04,-243.14 -543.04,-543.05 0,-299.91 243.12,-543.04 543.04,-543.04z"/>
    <path class="fil1" d="M4987.65 3770.91c-184.83,-306.47 -358.31,-641.39 -532.89,-956.08 -325.24,-586.26 -547.94,-1287.89 -1221.24,-1305.07 -306.34,-7.83 -595.7,140.3 -877.77,334.7 262.86,1.17 473.66,-68.58 701.74,343.15 174.43,314.86 349.06,629.63 523.69,944.41 174.72,314.91 300.62,562.27 594.65,681.64 217.6,88.33 501.11,119.24 811.81,-42.74z"/>
   </g>
  </g>
 </g>
</svg>
