<?xml version="1.0" encoding="UTF-8"?>
<!DOCTYPE svg PUBLIC "-//W3C//DTD SVG 1.1//EN" "http://www.w3.org/Graphics/SVG/1.1/DTD/svg11.dtd">
<!-- Creator: CorelDRAW -->
<svg xmlns="http://www.w3.org/2000/svg" xml:space="preserve" width="59.0806mm" height="21.644mm" version="1.1" style="shape-rendering:geometricPrecision; text-rendering:geometricPrecision; image-rendering:optimizeQuality; fill-rule:evenodd; clip-rule:evenodd"
viewBox="0 0 8516.82 3120.11"
 xmlns:xlink="http://www.w3.org/1999/xlink"
 xmlns:xodm="http://www.corel.com/coreldraw/odm/2003">
 <defs>
  <style type="text/css">
   <![CDATA[
    .fil1 {fill:white}
    .fil2 {fill:#343A40;fill-rule:nonzero}
    .fil0 {fill:url(#id0)}
   ]]>
  </style>
  <linearGradient id="id0" gradientUnits="userSpaceOnUse" x1="1007.02" y1="101.31" x2="2113.1" y2="3018.8">
   <stop offset="0" style="stop-opacity:1; stop-color:#468EF9"/>
   <stop offset="1" style="stop-opacity:1; stop-color:#0C66EE"/>
  </linearGradient>
 </defs>
 <g id="Camada_x0020_1">
  <metadata id="CorelCorpID_0Corel-Layer"/>
  <g id="_2450282937824">
   <circle class="fil0" cx="1560.06" cy="1560.06" r="1560.06"/>
   <g>
    <path class="fil1" d="M165.51 845.01c103.36,171.37 200.36,358.66 297.98,534.63 181.88,327.85 306.42,720.2 682.94,729.82 171.3,4.37 333.1,-78.46 490.85,-187.17 -147,-0.65 -264.87,38.36 -392.42,-191.89 -97.55,-176.07 -195.2,-352.1 -292.85,-528.12 -97.69,-176.1 -168.11,-314.43 -332.54,-381.19 -121.68,-49.39 -280.22,-66.67 -453.96,23.92z"/>
    <path class="fil1" d="M1552.98 1235.5c178.97,0 324.06,145.09 324.06,324.08 0,178.97 -145.09,324.08 -324.06,324.08 -178.98,0 -324.08,-145.11 -324.08,-324.08 0,-178.98 145.09,-324.08 324.08,-324.08zm0 40.03c156.87,0 284.03,127.17 284.03,284.04 0,156.87 -127.16,284.04 -284.03,284.04 -156.87,0 -284.04,-127.17 -284.04,-284.04 0,-156.87 127.17,-284.04 284.04,-284.04zm0 -19.63c167.71,0 303.66,135.97 303.66,303.68 0,167.71 -135.95,303.68 -303.66,303.68 -167.71,0 -303.68,-135.97 -303.68,-303.68 0,-167.71 135.97,-303.68 303.68,-303.68z"/>
    <path class="fil1" d="M2954.62 2275.11c-103.36,-171.39 -200.36,-358.67 -297.98,-534.65 -181.88,-327.84 -306.42,-720.2 -682.94,-729.82 -171.3,-4.37 -333.1,78.46 -490.85,187.17 147,0.65 264.87,-38.35 392.42,191.89 97.55,176.07 195.2,352.1 292.85,528.13 97.69,176.1 168.11,314.42 332.54,381.18 121.68,49.39 280.22,66.67 453.96,-23.9z"/>
   </g>
  </g>
  <path class="fil2" d="M3505.76 284.03c104.84,0 262.51,0 473.29,0 0,264.71 0,662.77 0,1194.42 -72.48,0 -180.35,0 -324.19,0 0,-193.36 0,-484.08 0,-871.88 0,-78 -13,-144.4 -38.73,-199.44 -25.99,-55.05 -62.78,-96.27 -110.37,-123.09zm1497.43 0c71.37,0 178.7,0 322.53,0 0,264.71 0,662.77 0,1194.42 -37.9,0 -95.71,0 -173.43,0 -50.9,0 -98.2,-11.89 -142.74,-35.68 -44.26,-24.9 -80.48,-58.37 -108.43,-100.42 -68.04,-105.94 -170.67,-264.71 -307.86,-476.61 0,136.1 0,340.53 0,612.71 -72.48,0 -180.63,0 -324.19,0 0,-265.82 0,-663.87 0,-1194.42 69.15,0 173.43,0 312.57,0 92.94,144.67 233.46,361.82 421.56,651.43 0,-108.16 0,-216.59 0,-325.85 0,-108.98 0,-217.69 0,-325.58zm541.18 247.85c-20.47,-55.05 -50.9,-137.76 -90.73,-247.85 75.52,0 190.04,0 343.55,0 58.37,162.1 146.89,404.96 265.84,729.16 58.35,-162.1 146.32,-405.24 264.17,-729.16 76.62,0 191.68,0 345.21,0 -83.26,229.04 -208.02,572.59 -374.53,1030.66 -18.26,49.79 -48.97,89.07 -92.39,118.4 -42.05,30.16 -89.07,45.37 -140.8,45.37 -40.12,0 -99.04,0 -176.76,0 -57.26,-157.66 -114.52,-315.62 -171.78,-473.29 -57.26,-157.66 -114.52,-315.62 -171.78,-473.28zm1340.05 -247.85c72.19,0 180.35,0 324.19,0 0,264.71 0,662.77 0,1194.42 -72.48,0 -180.63,0 -324.19,0 0,-265.82 0,-663.87 0,-1194.42zm1307.38 544.38c56.16,31.54 97.93,73.03 124.75,125.03 27.12,49.52 40.67,105.67 40.67,168.46 0,1.11 0,2.77 0,4.7 0,116.74 -45.91,208.56 -137.76,275.78 -91.83,66.95 -218.24,100.42 -379.23,100.42 -95.16,0 -180.9,-11.91 -257.81,-35.69 -76.62,-24.9 -138.3,-60.03 -184.78,-105.39 33.47,-50.89 84.92,-126.96 154.07,-228.47 33.47,30.14 79.39,56.15 137.76,77.73 58.37,21.57 109.54,32.36 154.07,32.36 61.41,0 109.54,-10.8 144.11,-32.36 35.69,-21.58 53.4,-47.59 53.4,-77.73 0,-19.36 -8.03,-36.79 -24.35,-52.01 -17.15,-13.82 -39.83,-24.61 -68.04,-32.36 -10.8,-3.04 -42.6,-11.33 -95.43,-24.33 -52.01,-13.84 -82.15,-22.13 -90.73,-24.35 -24.9,-6.36 -52.01,-13.28 -81.04,-21.02 -29.32,-8.58 -58.37,-19.36 -87.69,-32.36 -53.94,-24.9 -102.08,-61.68 -144.11,-110.09 -42.32,-49.79 -63.34,-120.05 -63.34,-210.78 0,-90.73 37.34,-170.67 111.75,-239.82 73.58,-68.06 176.75,-102.08 309.81,-102.08 102.62,0 257.52,0 464.99,0 0,63.62 0,160.43 0,289.9 -76.63,0 -153.8,0 -231.8,0 -77.73,0 -154.91,0 -231.8,0 -43.16,1.1 -73.3,5.52 -90.73,12.99 -16.04,7.76 -24.62,21.03 -25.73,40.67 -2.21,24.9 10.8,42.05 38.73,51.72 28.21,9.69 56.15,18.54 84.36,26.01 0,0 0,0 0,0 1.11,0 1.66,0 1.66,0 -1.1,0 -1.66,0 -1.66,0 0,0 0,0 0,0 6.37,1.11 32.36,6.92 77.73,17.98 45.37,11.62 94.05,25.73 145.78,42.05 28.21,9.69 55.87,19.36 82.7,29.05 27.1,10.78 50.34,22.13 69.7,34.02zm-3779.01 813.26c-24.9,65.84 -61.14,165.15 -108.71,298.19 -61.68,0 -154.07,0 -277.17,0 0,154.35 0,386.71 0,696.79 0,55.05 -19.36,102.08 -58.37,141.07 -38.72,39.01 -85.74,58.37 -141.07,58.37 -26.83,0 -68.6,0 -124.75,0 0,-198.89 0,-497.63 0,-896.23 -61.41,0 -153.8,0 -277.17,0 -23.79,-66.11 -60.03,-165.4 -108.43,-298.19 182.57,0 365.13,0 547.71,0 182.56,0 365.12,0 547.97,0zm1206.99 422.94c0,92.95 -16.61,171.78 -50.07,236.5 -34.58,65.01 -83.81,113.15 -147.72,144.4 44.53,87.4 110.37,217.69 197.78,390.58 -79.95,0 -200.82,0 -362.93,0 -38.99,-77.73 -97.91,-193.9 -176.75,-348.54 -29.05,0 -73.03,0 -131.11,0 0,77.73 0,193.92 0,348.54 -72.48,0 -180.63,0 -324.19,0 0,-265.82 0,-663.87 0,-1194.42 136.1,0 339.67,0 611.03,0 118.67,0 212.72,37.06 281.87,111.75 68.06,75.52 102.08,179.24 102.08,311.19zm-473.29 160.45c46.48,0 83.26,-14.11 110.37,-42.05 26.84,-28.21 40.39,-67.22 40.39,-116.74 0,-50.89 -13.55,-90.72 -40.39,-120.04 -27.1,-27.94 -63.89,-42.05 -110.37,-42.05 -44.26,0 -110.09,0 -197.49,0 0,71.37 0,178.13 0,320.88 32.36,0 65.27,0 98.75,0 32.36,0 65.27,0 98.75,0zm724.3 -583.38c72.19,0 180.35,0 324.19,0 0,264.71 0,662.77 0,1194.42 -72.48,0 -180.63,0 -324.19,0 0,-265.82 0,-663.87 0,-1194.42zm1395.07 585.04c59.48,16.04 105.94,48.68 139.41,97.09 32.36,48.68 48.41,109.82 48.41,183.12 0,102.9 -30.14,183.4 -90.73,241.75 -61.4,58.37 -140.51,87.42 -236.5,87.42 -142.73,0 -357.1,0 -643.4,0 0,-265.82 0,-663.87 0,-1194.42 136.1,0 339.67,0 611.03,0 94.88,0 172.89,28.49 233.19,85.74 59.48,56.16 89.9,134.44 90.73,235.13 0,65.84 -13.28,121.42 -40.39,166.79 -25.99,44.27 -63.34,76.91 -111.75,97.38zm-458.62 -337.2c0,47.57 0,118.4 0,212.44 49.5,0 124.19,0 223.5,0 30.16,0 54.49,-9.41 73.03,-27.66 17.14,-18.26 25.72,-44.26 25.72,-77.73 0,-33.47 -8.58,-59.48 -25.72,-77.73 -18.54,-19.63 -42.87,-29.32 -73.03,-29.32 -37.9,0 -74.96,0 -111.75,0 -37.9,0 -75.24,0 -111.75,0zm223.5 697.07c34.58,0 62.23,-10.24 82.7,-30.98 19.37,-21.58 29.61,-50.07 30.71,-85.76 0,-36.79 -10.24,-66.11 -30.71,-87.68 -20.47,-20.47 -48.12,-30.71 -82.7,-30.71 -49.79,0 -124.2,0 -223.5,0 0,51.72 0,130.29 0,235.12 36.51,0 73.85,0 111.75,0 36.79,0 73.85,0 111.75,0zm996.77 -218.8c0,45.37 0,112.86 0,202.48 107.87,0 271.07,0 489.32,0 0,59.46 0,147.99 0,265.82 -136.1,0 -340.78,0 -614.36,0 -55.04,0 -102.06,-19.36 -140.78,-58.37 -39.01,-38.99 -58.37,-86.02 -58.37,-141.07 0,-221.57 0,-553.23 0,-994.98 174.82,0 437.6,0 787.51,0 0,62.52 0,156.57 0,281.87 -102.62,0 -256.97,0 -463.32,0 0,43.16 0,108.71 0,196.12 75.51,0 190.03,0 343.55,0 -20.74,55.04 -51.45,137.76 -92.39,248.12 -42.32,0 -83.81,0 -124.75,0 -42.32,0 -84.37,0 -126.41,0z"/>
 </g>
</svg>
